<?xml version="1.0" encoding="UTF-8"?>
<svg xmlns="http://www.w3.org/2000/svg" xmlns:xlink="http://www.w3.org/1999/xlink" width="512" height="512" viewBox="0 0 60 60" version="1.1"><!-- Generator: Sketch 51.3 (57544) - http://www.bohemiancoding.com/sketch --><title>017 - Swab Test</title><desc>Created with Sketch.</desc><defs/><g id="Page-1" stroke="none" stroke-width="1" fill="none" fill-rule="evenodd"><g id="017---Swab-Test" fill-rule="nonzero"><path d="M40,17.12 L47.74,9.38 L50.62,12.26 L40,22.88 L20,37.12 L1.6,55.52 C0.812356817,56.3165894 0.815979848,57.5997623 1.60810877,58.3918912 C2.40023769,59.1840202 3.6834106,59.1876432 4.48,58.4 L20,42.88 L40,17.12 Z" id="Shape" fill="#673AB7"/><path d="M40,36 L40,49 C39.9980131,54.5220243 35.5220243,58.9980131 30,59 C29.5042122,59.0006139 29.0092127,58.9604788 28.52,58.88 C28.51,58.89 28.5,58.89 28.48,58.88 C23.6031547,58.129406 20.0024699,53.9342684 20,49 L20,36 L40,36 Z" id="Shape" fill="#283593"/><path d="M37,36 L37,49 C36.9975301,53.9342684 33.3968453,58.129406 28.52,58.88 C28.51,58.89 28.5,58.89 28.48,58.88 C23.6031547,58.129406 20.0024699,53.9342684 20,49 L20,36 L37,36 Z" id="Shape" fill="#3F51B5"/><rect id="Rectangle-path" fill="#0377BC" x="20" y="9" width="20" height="29"/><rect id="Rectangle-path" fill="#02A9F4" x="20" y="9" width="17" height="29"/><path d="M42,2 L42,7 C41.9967598,8.10322458 41.1032246,8.9967598 40,9 L20,9 C18.8967754,8.9967598 18.0032402,8.10322458 18,7 L18,2 C18.0015928,1.44837635 18.4483764,1.00159279 19,1 L41,1 C41.5516236,1.00159279 41.9984072,1.44837635 42,2 Z" id="Shape" fill="#CFD8DC"/><path d="M39,2 L39,7 C38.9967598,8.10322458 38.1032246,8.9967598 37,9 L20,9 C18.8967754,8.9967598 18.0032402,8.10322458 18,7 L18,2 C18.0015928,1.44837635 18.4483764,1.00159279 19,1 L38,1 C38.5516236,1.00159279 38.9984072,1.44837635 39,2 Z" id="Shape" fill="#F5F5F5"/><path d="M57.07,8.39 L50.62,12.26 L47.74,9.38 L51.61,2.93 C52.2400017,1.88076311 53.3178107,1.17982537 54.5323859,1.029468 C55.7469611,0.879110621 56.9631585,1.29606363 57.83,2.16 L57.84,2.17 C58.7035207,3.03703663 59.1201908,4.25310875 58.9698525,5.46752997 C58.8195141,6.68195119 58.1188814,7.75970768 57.07,8.39 Z" id="Shape" fill="#CFD8DC"/><path d="M55.07,8.39 L49.87,11.51 L47.74,9.38 L51.61,2.93 C52.1400695,2.0358541 53.0032005,1.38850586 54.01,1.13 C54.6985177,1.30275729 55.3274277,1.65867887 55.83,2.16 L55.84,2.17 C56.7035207,3.03703663 57.1201908,4.25310875 56.9698525,5.46752997 C56.8195141,6.68195119 56.1188814,7.75970768 55.07,8.39 Z" id="Shape" fill="#F5F5F5"/><path d="M30,60 C23.9277234,59.9931114 19.0068886,55.0722766 19,49 L19,9 C19,8.44771525 19.4477153,8 20,8 L40,8 C40.5522847,8 41,8.44771525 41,9 L41,49 C40.9931114,55.0722766 36.0722766,59.9931114 30,60 Z M21,10 L21,49 C21,53.9705627 25.0294373,58 30,58 C34.9705627,58 39,53.9705627 39,49 L39,10 L21,10 Z" id="Shape" fill="#000000"/><path d="M40,10 L20,10 C18.3438997,9.99818129 17.0018187,8.65610033 17,7 L17,2 C17.0012675,0.895955928 17.8959559,0.00126746556 19,0 L41,0 C42.1040441,0.00126746556 42.9987325,0.895955928 43,2 L43,7 C42.9981813,8.65610033 41.6561003,9.99818129 40,10 Z M19,2 L19,7 C19.0004962,7.55207909 19.4479209,7.9995038 20,8 L40,8 C40.5520791,7.9995038 40.9995038,7.55207909 41,7 L41,2 L19,2 Z" id="Shape" fill="#000000"/><path d="M27,54 L25,54 C24.4477153,54 24,53.5522847 24,53 C24,52.4477153 24.4477153,52 25,52 L26,52 L26,14 L25,14 C24.4477153,14 24,13.5522847 24,13 C24,12.4477153 24.4477153,12 25,12 L27,12 C27.5522847,12 28,12.4477153 28,13 L28,53 C28,53.5522847 27.5522847,54 27,54 Z" id="Shape" fill="#000000"/><path d="M27,19 L25,19 C24.4477153,19 24,18.5522847 24,18 C24,17.4477153 24.4477153,17 25,17 L27,17 C27.5522847,17 28,17.4477153 28,18 C28,18.5522847 27.5522847,19 27,19 Z" id="Shape" fill="#000000"/><path d="M27,24 L25,24 C24.4477153,24 24,23.5522847 24,23 C24,22.4477153 24.4477153,22 25,22 L27,22 C27.5522847,22 28,22.4477153 28,23 C28,23.5522847 27.5522847,24 27,24 Z" id="Shape" fill="#000000"/><path d="M27,29 L25,29 C24.4477153,29 24,28.5522847 24,28 C24,27.4477153 24.4477153,27 25,27 L27,27 C27.5522847,27 28,27.4477153 28,28 C28,28.5522847 27.5522847,29 27,29 Z" id="Shape" fill="#000000"/><path d="M27,34 L25,34 C24.4477153,34 24,33.5522847 24,33 C24,32.4477153 24.4477153,32 25,32 L27,32 C27.5522847,32 28,32.4477153 28,33 C28,33.5522847 27.5522847,34 27,34 Z" id="Shape" fill="#000000"/><path d="M27,39 L25,39 C24.4477153,39 24,38.5522847 24,38 C24,37.4477153 24.4477153,37 25,37 L27,37 C27.5522847,37 28,37.4477153 28,38 C28,38.5522847 27.5522847,39 27,39 Z" id="Shape" fill="#000000"/><path d="M27,44 L25,44 C24.4477153,44 24,43.5522847 24,43 C24,42.4477153 24.4477153,42 25,42 L27,42 C27.5522847,42 28,42.4477153 28,43 C28,43.5522847 27.5522847,44 27,44 Z" id="Shape" fill="#000000"/><path d="M27,49 L25,49 C24.4477153,49 24,48.5522847 24,48 C24,47.4477153 24.4477153,47 25,47 L27,47 C27.5522847,47 28,47.4477153 28,48 C28,48.5522847 27.5522847,49 27,49 Z" id="Shape" fill="#000000"/><path d="M40,39 L20,39 C19.4477153,39 19,38.5522847 19,38 C19,37.4477153 19.4477153,37 20,37 L40,37 C40.5522847,37 41,37.4477153 41,38 C41,38.5522847 40.5522847,39 40,39 Z" id="Shape" fill="#000000"/><path d="M3.0361,60 L3.0254,60 C2.22128278,59.9997384 1.4510033,59.6763414 0.8877,59.1025 C0.318461139,58.5335917 -0.000954509822,57.7615242 -3.51774505e-05,56.9567331 C0.000884154921,56.1519421 0.322062871,55.3806063 0.8926,54.813 L19.2926,36.413 C19.6849789,36.0340278 20.3086848,36.0394476 20.6944186,36.4251814 C21.0801524,36.8109152 21.0855722,37.4346211 20.7066,37.827 L2.3066,56.227 C2.1093765,56.4226217 1.9989199,56.6892163 2,56.967 C2.0085196,57.5336333 2.46557348,57.9910414 3.0322,58 L3.0361,58 C3.31313327,58.0002942 3.57871644,57.8894935 3.7734,57.6924 L19.2934,42.1729 C19.6857789,41.7939278 20.3094848,41.7993476 20.6952186,42.1850814 C21.0809524,42.5708152 21.0863722,43.1945211 20.7074,43.5869 L5.1875,59.1069 C4.61848842,59.6800764 3.84375249,60.0016887 3.0361,60 Z" id="Shape" fill="#000000"/><path d="M40,23.88 C39.5956041,23.8799137 39.2310659,23.6362725 39.076322,23.2626546 C38.9215781,22.8890366 39.0070921,22.4589943 39.293,22.173 L49.2061,12.26 L47.74,10.7939 L40.707,17.8271 C40.3146211,18.2060722 39.6909152,18.2006524 39.3051814,17.8149186 C38.9194476,17.4291848 38.9140278,16.8054789 39.293,16.4131 L47.033,8.6731 C47.4235113,8.28265141 48.0565887,8.28265141 48.4471,8.6731 L51.3271,11.5531 C51.7175486,11.9436113 51.7175486,12.5766887 51.3271,12.9672 L40.7071,23.5872 C40.5197562,23.775009 40.265273,23.8803868 40,23.88 Z" id="Shape" fill="#000000"/><path d="M50.6221,13.2617 C50.3568652,13.2617954 50.1024775,13.1564211 49.915,12.9688 L47.0313,10.085 C46.706909,9.76042104 46.6450638,9.25671263 46.8813,8.8633 L50.749,2.416 C51.961653,0.40149734 54.4177336,-0.490840654 56.6406955,0.27544167 C58.8636574,1.04172399 60.2481733,3.25796284 59.9619,5.5918 C59.7794492,7.11423155 58.9010804,8.46589786 57.584,9.251 L51.1367,13.1191 C50.9812377,13.2123395 50.8033792,13.2616256 50.6221,13.2617 Z M48.9971,9.2227 L50.7771,11.0027 L56.5545,7.5364 C57.6177118,6.89738965 58.1741065,5.66676699 57.9515513,4.44642985 C57.7289961,3.22609272 56.7740073,2.27110393 55.5536701,2.04854873 C54.333333,1.82599353 53.1027104,2.38238821 52.4637,3.4456 L48.9971,9.2227 Z" id="Shape" fill="#000000"/></g></g></svg>
